<svg xmlns="http://www.w3.org/2000/svg"  viewBox="0 0 50 50" width="50px" height="50px"><path d="M 13.332031 4 C 8.1895418 4 4 8.1895418 4 13.332031 L 4 36.667969 C 4 41.810458 8.1895418 46 13.332031 46 L 36.667969 46 C 41.810458 46 46 41.809388 46 36.666016 L 46 13.332031 C 46 8.1895418 41.809388 4 36.666016 4 L 13.332031 4 z M 13.332031 6 L 36.666016 6 C 40.728643 6 44 9.2705212 44 13.332031 L 44 36.666016 C 44 40.728643 40.729479 44 36.667969 44 L 13.332031 44 C 9.2705211 44 6 40.729479 6 36.667969 L 6 13.332031 C 6 9.2705211 9.2705212 6 13.332031 6 z M 14.001953 13.001953 A 1.0001 1.0001 0 0 0 13.001953 14.001953 L 13.001953 36 A 1.0001 1.0001 0 0 0 14.001953 37 L 25 37 L 35.998047 37 A 1.0001 1.0001 0 0 0 36.998047 36 L 36.998047 25.001953 A 1.0001 1.0001 0 0 0 35.291016 24.292969 L 26 33.585938 L 26 14.001953 A 1.0001 1.0001 0 0 0 25 13.001953 L 14.001953 13.001953 z M 33.015625 13.001953 A 1.0001 1.0001 0 0 0 32.0625 13.654297 C 31.475596 15.233308 30.23057 16.478693 28.652344 17.064453 A 1.0001 1.0001 0 0 0 28.652344 18.9375 C 30.231245 19.524363 31.475637 20.768755 32.0625 22.347656 A 1.0001 1.0001 0 0 0 33.9375 22.347656 C 34.523301 20.76932 35.76932 19.525254 37.347656 18.939453 A 1.0001 1.0001 0 0 0 37.347656 17.0625 C 35.768126 16.476573 34.523427 15.233827 33.9375 13.654297 A 1.0001 1.0001 0 0 0 33.015625 13.001953 z M 15.001953 15.001953 L 24 15.001953 L 24 35 L 15.001953 35 L 15.001953 15.001953 z M 33 15.810547 C 33.583439 16.698415 34.301541 17.418576 35.189453 18.001953 C 34.301862 18.585381 33.583428 19.303815 33 20.191406 C 32.416528 19.304113 31.69784 18.585425 30.810547 18.001953 C 31.698179 17.418462 32.41645 16.698153 33 15.810547 z M 34.998047 27.417969 L 34.998047 35 L 27.414062 35 L 34.998047 27.417969 z"/></svg>